<mxfile host="app.diagrams.net" agent="Mozilla/5.0 (Windows NT 10.0; Win64; x64) AppleWebKit/537.36 (KHTML, like Gecko) Chrome/130.0.0.0 Safari/537.36" version="24.8.3">
  <diagram name="Page-1" id="GWUrmtqu_i6PK0sugmxd">
    <mxGraphModel dx="880" dy="460" grid="1" gridSize="10" guides="1" tooltips="1" connect="1" arrows="1" fold="1" page="1" pageScale="1" pageWidth="827" pageHeight="1169" math="0" shadow="0">
      <root>
        <mxCell id="0" />
        <mxCell id="1" parent="0" />
        <mxCell id="8yztRhxNbyGp6tY24NXK-126" value="Diagramme de cas d&#39;utilisations Zoo Arcadia" style="rounded=0;whiteSpace=wrap;html=1;" parent="1" vertex="1">
          <mxGeometry x="240" y="110" width="320" height="40" as="geometry" />
        </mxCell>
        <mxCell id="8yztRhxNbyGp6tY24NXK-127" value="&lt;font color=&quot;#000000&quot;&gt;visiteur&lt;/font&gt;" style="shape=umlActor;verticalLabelPosition=bottom;verticalAlign=top;html=1;outlineConnect=0;fillColor=#6d8764;fontColor=#ffffff;strokeColor=#3A5431;" parent="1" vertex="1">
          <mxGeometry x="40" y="250" width="30" height="60" as="geometry" />
        </mxCell>
        <mxCell id="8yztRhxNbyGp6tY24NXK-128" value="vétérinait" style="shape=umlActor;verticalLabelPosition=bottom;verticalAlign=top;html=1;outlineConnect=0;fillColor=#76608a;fontColor=#ffffff;strokeColor=#432D57;" parent="1" vertex="1">
          <mxGeometry x="40" y="380" width="30" height="60" as="geometry" />
        </mxCell>
        <mxCell id="8yztRhxNbyGp6tY24NXK-129" value="&lt;font color=&quot;#000000&quot;&gt;employé&lt;/font&gt;&lt;div&gt;&lt;font color=&quot;#000000&quot;&gt;&lt;br&gt;&lt;/font&gt;&lt;/div&gt;" style="shape=umlActor;verticalLabelPosition=bottom;verticalAlign=top;html=1;outlineConnect=0;fillColor=#647687;fontColor=#ffffff;strokeColor=#000000;" parent="1" vertex="1">
          <mxGeometry x="40" y="510" width="30" height="60" as="geometry" />
        </mxCell>
        <mxCell id="8yztRhxNbyGp6tY24NXK-130" value="&lt;font color=&quot;#000000&quot;&gt;administrateur&lt;/font&gt;" style="shape=umlActor;verticalLabelPosition=bottom;verticalAlign=top;html=1;outlineConnect=0;fillColor=#a0522d;strokeColor=#6D1F00;fontColor=#ffffff;" parent="1" vertex="1">
          <mxGeometry x="40" y="690" width="30" height="60" as="geometry" />
        </mxCell>
        <mxCell id="8yztRhxNbyGp6tY24NXK-131" value="filtrer les animaux" style="rounded=1;whiteSpace=wrap;html=1;fillColor=#6d8764;strokeColor=#3A5431;fontColor=#ffffff;" parent="1" vertex="1">
          <mxGeometry x="480" y="230" width="120" height="20" as="geometry" />
        </mxCell>
        <mxCell id="8yztRhxNbyGp6tY24NXK-132" value="consulter les animaux" style="rounded=1;whiteSpace=wrap;html=1;fillColor=#6d8764;strokeColor=#3A5431;fontColor=#ffffff;" parent="1" vertex="1">
          <mxGeometry x="260" y="230" width="120" height="20" as="geometry" />
        </mxCell>
        <mxCell id="8yztRhxNbyGp6tY24NXK-133" value="consulter les habitats" style="rounded=1;whiteSpace=wrap;html=1;fillColor=#6d8764;strokeColor=#3A5431;fontColor=#ffffff;" parent="1" vertex="1">
          <mxGeometry x="260" y="260" width="120" height="20" as="geometry" />
        </mxCell>
        <mxCell id="8yztRhxNbyGp6tY24NXK-134" value="consulter les services" style="rounded=1;whiteSpace=wrap;html=1;fillColor=#6d8764;strokeColor=#3A5431;fontColor=#ffffff;" parent="1" vertex="1">
          <mxGeometry x="260" y="290" width="120" height="20" as="geometry" />
        </mxCell>
        <mxCell id="8yztRhxNbyGp6tY24NXK-135" value="lire les avis et rédiger un avis" style="rounded=1;whiteSpace=wrap;html=1;fillColor=#6d8764;strokeColor=#3A5431;fontColor=#ffffff;" parent="1" vertex="1">
          <mxGeometry x="260" y="380" width="160" height="20" as="geometry" />
        </mxCell>
        <mxCell id="8yztRhxNbyGp6tY24NXK-136" value="contacter le zoo par mail" style="rounded=1;whiteSpace=wrap;html=1;fillColor=#6d8764;strokeColor=#3A5431;fontColor=#ffffff;" parent="1" vertex="1">
          <mxGeometry x="260" y="350" width="150" height="20" as="geometry" />
        </mxCell>
        <mxCell id="8yztRhxNbyGp6tY24NXK-137" value="consulter les horaires" style="rounded=1;whiteSpace=wrap;html=1;fillColor=#6d8764;strokeColor=#3A5431;fontColor=#ffffff;" parent="1" vertex="1">
          <mxGeometry x="260" y="320" width="120" height="20" as="geometry" />
        </mxCell>
        <mxCell id="8yztRhxNbyGp6tY24NXK-138" value="" style="endArrow=classic;html=1;rounded=0;entryX=0;entryY=0.5;entryDx=0;entryDy=0;exitX=0.5;exitY=0.5;exitDx=0;exitDy=0;exitPerimeter=0;" parent="1" source="8yztRhxNbyGp6tY24NXK-127" target="8yztRhxNbyGp6tY24NXK-133" edge="1">
          <mxGeometry width="50" height="50" relative="1" as="geometry">
            <mxPoint x="430" y="460" as="sourcePoint" />
            <mxPoint x="480" y="410" as="targetPoint" />
          </mxGeometry>
        </mxCell>
        <mxCell id="8yztRhxNbyGp6tY24NXK-139" value="" style="endArrow=classic;html=1;rounded=0;entryX=0;entryY=0.5;entryDx=0;entryDy=0;exitX=0.5;exitY=0.5;exitDx=0;exitDy=0;exitPerimeter=0;" parent="1" source="8yztRhxNbyGp6tY24NXK-127" target="8yztRhxNbyGp6tY24NXK-132" edge="1">
          <mxGeometry width="50" height="50" relative="1" as="geometry">
            <mxPoint x="430" y="460" as="sourcePoint" />
            <mxPoint x="480" y="410" as="targetPoint" />
          </mxGeometry>
        </mxCell>
        <mxCell id="8yztRhxNbyGp6tY24NXK-140" value="" style="endArrow=classic;html=1;rounded=0;exitX=0.5;exitY=0.5;exitDx=0;exitDy=0;exitPerimeter=0;entryX=0;entryY=0.5;entryDx=0;entryDy=0;" parent="1" source="8yztRhxNbyGp6tY24NXK-127" target="8yztRhxNbyGp6tY24NXK-134" edge="1">
          <mxGeometry width="50" height="50" relative="1" as="geometry">
            <mxPoint x="430" y="460" as="sourcePoint" />
            <mxPoint x="480" y="410" as="targetPoint" />
          </mxGeometry>
        </mxCell>
        <mxCell id="8yztRhxNbyGp6tY24NXK-141" value="" style="endArrow=classic;html=1;rounded=0;entryX=0;entryY=0.5;entryDx=0;entryDy=0;exitX=0.5;exitY=0.5;exitDx=0;exitDy=0;exitPerimeter=0;" parent="1" source="8yztRhxNbyGp6tY24NXK-127" target="8yztRhxNbyGp6tY24NXK-137" edge="1">
          <mxGeometry width="50" height="50" relative="1" as="geometry">
            <mxPoint x="100" y="270" as="sourcePoint" />
            <mxPoint x="270" y="350" as="targetPoint" />
          </mxGeometry>
        </mxCell>
        <mxCell id="8yztRhxNbyGp6tY24NXK-142" value="" style="endArrow=classic;html=1;rounded=0;exitX=0.5;exitY=0.5;exitDx=0;exitDy=0;exitPerimeter=0;" parent="1" source="8yztRhxNbyGp6tY24NXK-127" edge="1">
          <mxGeometry width="50" height="50" relative="1" as="geometry">
            <mxPoint x="350" y="460" as="sourcePoint" />
            <mxPoint x="260" y="360" as="targetPoint" />
          </mxGeometry>
        </mxCell>
        <mxCell id="8yztRhxNbyGp6tY24NXK-143" value="" style="endArrow=classic;html=1;rounded=0;exitX=0.5;exitY=0.5;exitDx=0;exitDy=0;exitPerimeter=0;entryX=0;entryY=0.5;entryDx=0;entryDy=0;" parent="1" source="8yztRhxNbyGp6tY24NXK-127" target="8yztRhxNbyGp6tY24NXK-135" edge="1">
          <mxGeometry width="50" height="50" relative="1" as="geometry">
            <mxPoint x="350" y="460" as="sourcePoint" />
            <mxPoint x="400" y="410" as="targetPoint" />
          </mxGeometry>
        </mxCell>
        <mxCell id="8yztRhxNbyGp6tY24NXK-144" value="se connecter" style="ellipse;whiteSpace=wrap;html=1;fillColor=#f8cecc;strokeColor=#b85450;" parent="1" vertex="1">
          <mxGeometry x="630" y="400" width="120" height="430" as="geometry" />
        </mxCell>
        <mxCell id="8yztRhxNbyGp6tY24NXK-145" value="établir un compte rendu santé animal" style="rounded=1;whiteSpace=wrap;html=1;fillColor=#76608a;strokeColor=#432D57;fontColor=#ffffff;" parent="1" vertex="1">
          <mxGeometry x="160" y="420" width="210" height="20" as="geometry" />
        </mxCell>
        <mxCell id="8yztRhxNbyGp6tY24NXK-146" value="" style="endArrow=classic;html=1;rounded=0;exitX=0.5;exitY=0.5;exitDx=0;exitDy=0;exitPerimeter=0;" parent="1" source="8yztRhxNbyGp6tY24NXK-128" edge="1">
          <mxGeometry width="50" height="50" relative="1" as="geometry">
            <mxPoint x="350" y="460" as="sourcePoint" />
            <mxPoint x="160" y="430" as="targetPoint" />
          </mxGeometry>
        </mxCell>
        <mxCell id="8yztRhxNbyGp6tY24NXK-147" value="rentrer un rapport nourriture animal" style="rounded=1;whiteSpace=wrap;html=1;fillColor=#647687;strokeColor=#314354;fontColor=#ffffff;" parent="1" vertex="1">
          <mxGeometry x="205" y="490" width="195" height="20" as="geometry" />
        </mxCell>
        <mxCell id="8yztRhxNbyGp6tY24NXK-148" value="valider ou invalider un avis" style="rounded=1;whiteSpace=wrap;html=1;fillColor=#647687;strokeColor=#314354;fontColor=#ffffff;" parent="1" vertex="1">
          <mxGeometry x="205" y="520" width="150" height="20" as="geometry" />
        </mxCell>
        <mxCell id="8yztRhxNbyGp6tY24NXK-149" value="modifier les services du zoo" style="rounded=1;whiteSpace=wrap;html=1;fillColor=#647687;strokeColor=#314354;fontColor=#ffffff;" parent="1" vertex="1">
          <mxGeometry x="205" y="550" width="160" height="20" as="geometry" />
        </mxCell>
        <mxCell id="8yztRhxNbyGp6tY24NXK-150" value="" style="endArrow=classic;html=1;rounded=0;exitX=0.5;exitY=0.5;exitDx=0;exitDy=0;exitPerimeter=0;entryX=0;entryY=0.5;entryDx=0;entryDy=0;" parent="1" source="8yztRhxNbyGp6tY24NXK-129" target="8yztRhxNbyGp6tY24NXK-149" edge="1">
          <mxGeometry width="50" height="50" relative="1" as="geometry">
            <mxPoint x="350" y="560" as="sourcePoint" />
            <mxPoint x="400" y="510" as="targetPoint" />
          </mxGeometry>
        </mxCell>
        <mxCell id="8yztRhxNbyGp6tY24NXK-151" value="" style="endArrow=classic;html=1;rounded=0;exitX=0.5;exitY=0.5;exitDx=0;exitDy=0;exitPerimeter=0;entryX=0;entryY=0.75;entryDx=0;entryDy=0;" parent="1" source="8yztRhxNbyGp6tY24NXK-129" target="8yztRhxNbyGp6tY24NXK-148" edge="1">
          <mxGeometry width="50" height="50" relative="1" as="geometry">
            <mxPoint x="350" y="560" as="sourcePoint" />
            <mxPoint x="400" y="510" as="targetPoint" />
          </mxGeometry>
        </mxCell>
        <mxCell id="8yztRhxNbyGp6tY24NXK-152" value="" style="endArrow=classic;html=1;rounded=0;exitX=0.5;exitY=0.5;exitDx=0;exitDy=0;exitPerimeter=0;entryX=0;entryY=0.5;entryDx=0;entryDy=0;" parent="1" source="8yztRhxNbyGp6tY24NXK-129" target="8yztRhxNbyGp6tY24NXK-147" edge="1">
          <mxGeometry width="50" height="50" relative="1" as="geometry">
            <mxPoint x="350" y="560" as="sourcePoint" />
            <mxPoint x="400" y="510" as="targetPoint" />
          </mxGeometry>
        </mxCell>
        <mxCell id="8yztRhxNbyGp6tY24NXK-153" value="includ" style="endArrow=open;endSize=12;dashed=1;html=1;rounded=0;" parent="1" target="8yztRhxNbyGp6tY24NXK-147" edge="1">
          <mxGeometry width="160" relative="1" as="geometry">
            <mxPoint x="640" y="508" as="sourcePoint" />
            <mxPoint x="630" y="570" as="targetPoint" />
          </mxGeometry>
        </mxCell>
        <mxCell id="8yztRhxNbyGp6tY24NXK-154" value="includ" style="endArrow=open;endSize=12;dashed=1;html=1;rounded=0;exitX=0.083;exitY=0.256;exitDx=0;exitDy=0;exitPerimeter=0;entryX=1;entryY=0.25;entryDx=0;entryDy=0;" parent="1" source="8yztRhxNbyGp6tY24NXK-144" target="8yztRhxNbyGp6tY24NXK-149" edge="1">
          <mxGeometry width="160" relative="1" as="geometry">
            <mxPoint x="290" y="440" as="sourcePoint" />
            <mxPoint x="633" y="570" as="targetPoint" />
          </mxGeometry>
        </mxCell>
        <mxCell id="8yztRhxNbyGp6tY24NXK-155" value="includ" style="endArrow=open;endSize=12;dashed=1;html=1;rounded=0;entryX=1;entryY=0.25;entryDx=0;entryDy=0;" parent="1" target="8yztRhxNbyGp6tY24NXK-148" edge="1">
          <mxGeometry width="160" relative="1" as="geometry">
            <mxPoint x="640" y="510" as="sourcePoint" />
            <mxPoint x="630" y="570" as="targetPoint" />
          </mxGeometry>
        </mxCell>
        <mxCell id="8yztRhxNbyGp6tY24NXK-156" value="application" style="shape=umlFrame;whiteSpace=wrap;html=1;pointerEvents=0;" parent="1" vertex="1">
          <mxGeometry x="100" y="190" width="660" height="680" as="geometry" />
        </mxCell>
        <mxCell id="8yztRhxNbyGp6tY24NXK-157" value="includ" style="endArrow=open;endSize=12;dashed=1;html=1;rounded=0;exitX=0.325;exitY=0.035;exitDx=0;exitDy=0;exitPerimeter=0;" parent="1" source="8yztRhxNbyGp6tY24NXK-144" target="8yztRhxNbyGp6tY24NXK-145" edge="1">
          <mxGeometry width="160" relative="1" as="geometry">
            <mxPoint x="370" y="439" as="sourcePoint" />
            <mxPoint x="650" y="443" as="targetPoint" />
          </mxGeometry>
        </mxCell>
        <mxCell id="8yztRhxNbyGp6tY24NXK-158" value="CRUD les horaires" style="rounded=1;whiteSpace=wrap;html=1;fillColor=#a0522d;strokeColor=#6D1F00;fontColor=#ffffff;" parent="1" vertex="1">
          <mxGeometry x="205" y="720" width="120" height="20" as="geometry" />
        </mxCell>
        <mxCell id="8yztRhxNbyGp6tY24NXK-159" value="CRUD les services" style="rounded=1;whiteSpace=wrap;html=1;fillColor=#a0522d;strokeColor=#6D1F00;fontColor=#ffffff;" parent="1" vertex="1">
          <mxGeometry x="205" y="690" width="115" height="20" as="geometry" />
        </mxCell>
        <mxCell id="8yztRhxNbyGp6tY24NXK-160" value="CRUD Mettre à jour les animaux" style="rounded=1;whiteSpace=wrap;html=1;fillColor=#a0522d;strokeColor=#6D1F00;fontColor=#ffffff;" parent="1" vertex="1">
          <mxGeometry x="205" y="620" width="115" height="30" as="geometry" />
        </mxCell>
        <mxCell id="8yztRhxNbyGp6tY24NXK-161" value="CRUD les habitats" style="rounded=1;whiteSpace=wrap;html=1;fillColor=#a0522d;strokeColor=#6D1F00;fontColor=#ffffff;" parent="1" vertex="1">
          <mxGeometry x="205" y="660" width="115" height="20" as="geometry" />
        </mxCell>
        <mxCell id="8yztRhxNbyGp6tY24NXK-162" value="CRUD créer un compte de type employé et vétérinaire" style="rounded=1;whiteSpace=wrap;html=1;fillColor=#a0522d;strokeColor=#6D1F00;fontColor=#ffffff;" parent="1" vertex="1">
          <mxGeometry x="205" y="750" width="160" height="30" as="geometry" />
        </mxCell>
        <mxCell id="8yztRhxNbyGp6tY24NXK-163" value="consulter le tableau des consultations animal" style="rounded=1;whiteSpace=wrap;html=1;fillColor=#a0522d;strokeColor=#6D1F00;fontColor=#ffffff;" parent="1" vertex="1">
          <mxGeometry x="205" y="790" width="135" height="30" as="geometry" />
        </mxCell>
        <mxCell id="8yztRhxNbyGp6tY24NXK-164" value="filtrer les animaux" style="rounded=1;whiteSpace=wrap;html=1;fillColor=#a0522d;strokeColor=#6D1F00;fontColor=#ffffff;" parent="1" vertex="1">
          <mxGeometry x="490" y="622.5" width="110" height="25" as="geometry" />
        </mxCell>
        <mxCell id="8yztRhxNbyGp6tY24NXK-165" value="" style="endArrow=classic;html=1;rounded=0;exitX=0.5;exitY=0.5;exitDx=0;exitDy=0;exitPerimeter=0;entryX=0;entryY=0.5;entryDx=0;entryDy=0;" parent="1" source="8yztRhxNbyGp6tY24NXK-130" target="8yztRhxNbyGp6tY24NXK-163" edge="1">
          <mxGeometry width="50" height="50" relative="1" as="geometry">
            <mxPoint x="420" y="800" as="sourcePoint" />
            <mxPoint x="470" y="750" as="targetPoint" />
          </mxGeometry>
        </mxCell>
        <mxCell id="8yztRhxNbyGp6tY24NXK-166" value="" style="endArrow=classic;html=1;rounded=0;exitX=0.5;exitY=0.5;exitDx=0;exitDy=0;exitPerimeter=0;entryX=0;entryY=0.5;entryDx=0;entryDy=0;" parent="1" source="8yztRhxNbyGp6tY24NXK-130" target="8yztRhxNbyGp6tY24NXK-162" edge="1">
          <mxGeometry width="50" height="50" relative="1" as="geometry">
            <mxPoint x="420" y="800" as="sourcePoint" />
            <mxPoint x="470" y="750" as="targetPoint" />
          </mxGeometry>
        </mxCell>
        <mxCell id="8yztRhxNbyGp6tY24NXK-167" value="" style="endArrow=classic;html=1;rounded=0;entryX=0;entryY=0.5;entryDx=0;entryDy=0;exitX=0.5;exitY=0.5;exitDx=0;exitDy=0;exitPerimeter=0;" parent="1" source="8yztRhxNbyGp6tY24NXK-130" target="8yztRhxNbyGp6tY24NXK-158" edge="1">
          <mxGeometry width="50" height="50" relative="1" as="geometry">
            <mxPoint x="420" y="800" as="sourcePoint" />
            <mxPoint x="220" y="740" as="targetPoint" />
          </mxGeometry>
        </mxCell>
        <mxCell id="8yztRhxNbyGp6tY24NXK-168" value="" style="endArrow=classic;html=1;rounded=0;exitX=0.5;exitY=0.5;exitDx=0;exitDy=0;exitPerimeter=0;entryX=0;entryY=0.25;entryDx=0;entryDy=0;" parent="1" source="8yztRhxNbyGp6tY24NXK-130" target="8yztRhxNbyGp6tY24NXK-159" edge="1">
          <mxGeometry width="50" height="50" relative="1" as="geometry">
            <mxPoint x="420" y="800" as="sourcePoint" />
            <mxPoint x="470" y="750" as="targetPoint" />
          </mxGeometry>
        </mxCell>
        <mxCell id="8yztRhxNbyGp6tY24NXK-169" value="" style="endArrow=classic;html=1;rounded=0;exitX=0.5;exitY=0.5;exitDx=0;exitDy=0;exitPerimeter=0;entryX=0;entryY=0.5;entryDx=0;entryDy=0;" parent="1" source="8yztRhxNbyGp6tY24NXK-130" target="8yztRhxNbyGp6tY24NXK-160" edge="1">
          <mxGeometry width="50" height="50" relative="1" as="geometry">
            <mxPoint x="420" y="800" as="sourcePoint" />
            <mxPoint x="470" y="750" as="targetPoint" />
          </mxGeometry>
        </mxCell>
        <mxCell id="8yztRhxNbyGp6tY24NXK-170" value="" style="endArrow=classic;html=1;rounded=0;exitX=0.5;exitY=0.5;exitDx=0;exitDy=0;exitPerimeter=0;entryX=0;entryY=0.5;entryDx=0;entryDy=0;" parent="1" source="8yztRhxNbyGp6tY24NXK-130" target="8yztRhxNbyGp6tY24NXK-161" edge="1">
          <mxGeometry width="50" height="50" relative="1" as="geometry">
            <mxPoint x="420" y="800" as="sourcePoint" />
            <mxPoint x="470" y="750" as="targetPoint" />
          </mxGeometry>
        </mxCell>
        <mxCell id="8yztRhxNbyGp6tY24NXK-171" value="includ" style="endArrow=open;endSize=12;dashed=1;html=1;rounded=0;entryX=0.948;entryY=0.85;entryDx=0;entryDy=0;entryPerimeter=0;" parent="1" target="8yztRhxNbyGp6tY24NXK-160" edge="1">
          <mxGeometry width="160" relative="1" as="geometry">
            <mxPoint x="635" y="670" as="sourcePoint" />
            <mxPoint x="640" y="690" as="targetPoint" />
          </mxGeometry>
        </mxCell>
        <mxCell id="8yztRhxNbyGp6tY24NXK-172" value="includ" style="endArrow=open;endSize=12;dashed=1;html=1;rounded=0;entryX=1;entryY=0.25;entryDx=0;entryDy=0;" parent="1" target="8yztRhxNbyGp6tY24NXK-159" edge="1">
          <mxGeometry x="-0.0127" y="1" width="160" relative="1" as="geometry">
            <mxPoint x="640" y="670" as="sourcePoint" />
            <mxPoint x="640" y="700" as="targetPoint" />
            <mxPoint as="offset" />
          </mxGeometry>
        </mxCell>
        <mxCell id="8yztRhxNbyGp6tY24NXK-173" value="includ" style="endArrow=open;endSize=12;dashed=1;html=1;rounded=0;entryX=1;entryY=0.25;entryDx=0;entryDy=0;" parent="1" target="8yztRhxNbyGp6tY24NXK-161" edge="1">
          <mxGeometry width="160" relative="1" as="geometry">
            <mxPoint x="630" y="670" as="sourcePoint" />
            <mxPoint x="650" y="700" as="targetPoint" />
          </mxGeometry>
        </mxCell>
        <mxCell id="8yztRhxNbyGp6tY24NXK-174" value="" style="endArrow=classic;html=1;rounded=0;exitX=0.5;exitY=0;exitDx=0;exitDy=0;exitPerimeter=0;" parent="1" source="8yztRhxNbyGp6tY24NXK-129" edge="1">
          <mxGeometry width="50" height="50" relative="1" as="geometry">
            <mxPoint x="370" y="590" as="sourcePoint" />
            <mxPoint x="55" y="460" as="targetPoint" />
          </mxGeometry>
        </mxCell>
        <mxCell id="8yztRhxNbyGp6tY24NXK-175" value="" style="endArrow=classic;html=1;rounded=0;exitX=0.5;exitY=0;exitDx=0;exitDy=0;exitPerimeter=0;" parent="1" source="8yztRhxNbyGp6tY24NXK-130" edge="1">
          <mxGeometry width="50" height="50" relative="1" as="geometry">
            <mxPoint x="60" y="680" as="sourcePoint" />
            <mxPoint x="55" y="600" as="targetPoint" />
          </mxGeometry>
        </mxCell>
        <mxCell id="8yztRhxNbyGp6tY24NXK-176" style="edgeStyle=orthogonalEdgeStyle;rounded=0;orthogonalLoop=1;jettySize=auto;html=1;exitX=0.5;exitY=1;exitDx=0;exitDy=0;" parent="1" source="8yztRhxNbyGp6tY24NXK-132" target="8yztRhxNbyGp6tY24NXK-132" edge="1">
          <mxGeometry relative="1" as="geometry" />
        </mxCell>
        <mxCell id="8yztRhxNbyGp6tY24NXK-177" value="includ" style="endArrow=open;endSize=12;dashed=1;html=1;rounded=0;entryX=1;entryY=0.25;entryDx=0;entryDy=0;" parent="1" target="8yztRhxNbyGp6tY24NXK-158" edge="1">
          <mxGeometry width="160" relative="1" as="geometry">
            <mxPoint x="640" y="670" as="sourcePoint" />
            <mxPoint x="650" y="700" as="targetPoint" />
          </mxGeometry>
        </mxCell>
        <mxCell id="8yztRhxNbyGp6tY24NXK-178" value="includ" style="endArrow=open;endSize=12;dashed=1;html=1;rounded=0;" parent="1" edge="1">
          <mxGeometry width="160" relative="1" as="geometry">
            <mxPoint x="640" y="670" as="sourcePoint" />
            <mxPoint x="340" y="800" as="targetPoint" />
          </mxGeometry>
        </mxCell>
        <mxCell id="8yztRhxNbyGp6tY24NXK-179" value="includ" style="endArrow=open;endSize=12;dashed=1;html=1;rounded=0;entryX=1;entryY=0.25;entryDx=0;entryDy=0;" parent="1" target="8yztRhxNbyGp6tY24NXK-162" edge="1">
          <mxGeometry width="160" relative="1" as="geometry">
            <mxPoint x="630" y="670" as="sourcePoint" />
            <mxPoint x="640" y="700" as="targetPoint" />
          </mxGeometry>
        </mxCell>
        <mxCell id="8yztRhxNbyGp6tY24NXK-180" value="consulter les comptes rendus vétérinaire" style="rounded=1;whiteSpace=wrap;html=1;fillColor=#a0522d;fontColor=#ffffff;strokeColor=#6D1F00;" parent="1" vertex="1">
          <mxGeometry x="205" y="830" width="120" height="30" as="geometry" />
        </mxCell>
        <mxCell id="8yztRhxNbyGp6tY24NXK-181" value="" style="endArrow=classic;html=1;rounded=0;exitX=0.5;exitY=0.5;exitDx=0;exitDy=0;exitPerimeter=0;entryX=0;entryY=0.25;entryDx=0;entryDy=0;fillColor=#a0522d;strokeColor=#000000;" parent="1" source="8yztRhxNbyGp6tY24NXK-130" target="8yztRhxNbyGp6tY24NXK-180" edge="1">
          <mxGeometry width="50" height="50" relative="1" as="geometry">
            <mxPoint x="360" y="690" as="sourcePoint" />
            <mxPoint x="410" y="640" as="targetPoint" />
          </mxGeometry>
        </mxCell>
        <mxCell id="8yztRhxNbyGp6tY24NXK-182" value="consulter le rapport nourriture animal" style="rounded=1;whiteSpace=wrap;html=1;fillColor=#76608a;fontColor=#ffffff;strokeColor=#432D57;" parent="1" vertex="1">
          <mxGeometry x="160" y="450" width="210" height="20" as="geometry" />
        </mxCell>
        <mxCell id="8yztRhxNbyGp6tY24NXK-183" value="" style="endArrow=classic;html=1;rounded=0;exitX=0.5;exitY=0.5;exitDx=0;exitDy=0;exitPerimeter=0;entryX=0;entryY=0.5;entryDx=0;entryDy=0;" parent="1" source="8yztRhxNbyGp6tY24NXK-128" target="8yztRhxNbyGp6tY24NXK-182" edge="1">
          <mxGeometry width="50" height="50" relative="1" as="geometry">
            <mxPoint x="360" y="590" as="sourcePoint" />
            <mxPoint x="410" y="540" as="targetPoint" />
          </mxGeometry>
        </mxCell>
        <mxCell id="8yztRhxNbyGp6tY24NXK-184" value="includ" style="endArrow=open;endSize=12;dashed=1;html=1;rounded=0;exitX=0.342;exitY=0.033;exitDx=0;exitDy=0;exitPerimeter=0;entryX=1;entryY=0.5;entryDx=0;entryDy=0;" parent="1" source="8yztRhxNbyGp6tY24NXK-144" target="8yztRhxNbyGp6tY24NXK-182" edge="1">
          <mxGeometry width="160" relative="1" as="geometry">
            <mxPoint x="360" y="530" as="sourcePoint" />
            <mxPoint x="520" y="530" as="targetPoint" />
          </mxGeometry>
        </mxCell>
        <mxCell id="8yztRhxNbyGp6tY24NXK-185" value="includ" style="endArrow=open;endSize=12;dashed=1;html=1;rounded=0;entryX=1;entryY=0.5;entryDx=0;entryDy=0;entryPerimeter=0;" parent="1" target="8yztRhxNbyGp6tY24NXK-180" edge="1">
          <mxGeometry width="160" relative="1" as="geometry">
            <mxPoint x="630" y="670" as="sourcePoint" />
            <mxPoint x="520" y="730" as="targetPoint" />
          </mxGeometry>
        </mxCell>
        <mxCell id="8yztRhxNbyGp6tY24NXK-186" value="" style="endArrow=classic;html=1;rounded=0;exitX=0.5;exitY=0;exitDx=0;exitDy=0;exitPerimeter=0;" parent="1" source="8yztRhxNbyGp6tY24NXK-128" edge="1">
          <mxGeometry width="50" height="50" relative="1" as="geometry">
            <mxPoint x="420" y="360" as="sourcePoint" />
            <mxPoint x="55" y="330" as="targetPoint" />
          </mxGeometry>
        </mxCell>
        <mxCell id="8yztRhxNbyGp6tY24NXK-187" value="vétérinaire" style="text;html=1;align=center;verticalAlign=middle;resizable=0;points=[];autosize=1;strokeColor=none;fillColor=none;" parent="1" vertex="1">
          <mxGeometry x="10" y="440" width="80" height="30" as="geometry" />
        </mxCell>
        <mxCell id="8yztRhxNbyGp6tY24NXK-188" value="extend" style="endArrow=open;endSize=12;dashed=1;html=1;rounded=0;" parent="1" edge="1">
          <mxGeometry width="160" relative="1" as="geometry">
            <mxPoint x="380" y="240" as="sourcePoint" />
            <mxPoint x="480" y="240" as="targetPoint" />
          </mxGeometry>
        </mxCell>
        <mxCell id="8yztRhxNbyGp6tY24NXK-189" value="extend" style="endArrow=open;endSize=12;dashed=1;html=1;rounded=0;exitX=1;exitY=0.5;exitDx=0;exitDy=0;entryX=0;entryY=0.5;entryDx=0;entryDy=0;" parent="1" source="8yztRhxNbyGp6tY24NXK-160" target="8yztRhxNbyGp6tY24NXK-164" edge="1">
          <mxGeometry width="160" relative="1" as="geometry">
            <mxPoint x="360" y="730" as="sourcePoint" />
            <mxPoint x="520" y="730" as="targetPoint" />
          </mxGeometry>
        </mxCell>
      </root>
    </mxGraphModel>
  </diagram>
</mxfile>
